<svg width="26" height="26" viewBox="0 0 26 26" fill="none" xmlns="http://www.w3.org/2000/svg">
<g filter="url(#filter0_d_212_36)">
<path d="M12.9834 5.8872C12.5213 5.8872 12.1252 5.97155 11.7952 6.14024C11.4725 6.30893 11.2048 6.5363 10.9921 6.82235C10.7867 7.10839 10.6363 7.43844 10.541 7.8125C10.4456 8.17922 10.398 8.56428 10.398 8.96768C10.398 9.40041 10.4493 9.80747 10.552 10.1889C10.6547 10.5703 10.8124 10.904 11.0251 11.19C11.2378 11.4687 11.5091 11.6924 11.8392 11.8611C12.1692 12.0225 12.5616 12.1032 13.0164 12.1032C13.5665 12.1032 14.0285 11.9895 14.4026 11.7621C14.7767 11.5347 15.0187 11.2304 15.1287 10.849H16.1739C16.0052 11.4944 15.6495 12.0115 15.1067 12.4002C14.564 12.7816 13.8598 12.9723 12.9944 12.9723C12.3929 12.9723 11.8685 12.8733 11.4211 12.6753C10.9737 12.4772 10.5997 12.2022 10.299 11.8501C10.0056 11.4981 9.78555 11.08 9.63886 10.5959C9.49217 10.1119 9.41882 9.58011 9.41882 9.00068C9.41882 8.42859 9.49217 7.90051 9.63886 7.41644C9.78555 6.93236 10.0092 6.5143 10.31 6.16224C10.6107 5.80285 10.9847 5.52414 11.4321 5.32611C11.8795 5.12075 12.4076 5.01807 13.0164 5.01807C13.4418 5.01807 13.8232 5.06941 14.1606 5.17209C14.5053 5.27477 14.8023 5.42146 15.0517 5.61216C15.3084 5.79552 15.5174 6.01922 15.6788 6.28326C15.8401 6.53997 15.9575 6.82601 16.0308 7.14139H15.0627C14.9527 6.76 14.7143 6.45562 14.3476 6.22825C13.9882 6.00089 13.5335 5.8872 12.9834 5.8872Z" fill="black"/>
<rect x="4.5" y="0.5" width="17" height="17" rx="8.5" stroke="black" shape-rendering="crispEdges"/>
</g>
<defs>
<filter id="filter0_d_212_36" x="0" y="0" width="26" height="26" filterUnits="userSpaceOnUse" color-interpolation-filters="sRGB">
<feFlood flood-opacity="0" result="BackgroundImageFix"/>
<feColorMatrix in="SourceAlpha" type="matrix" values="0 0 0 0 0 0 0 0 0 0 0 0 0 0 0 0 0 0 127 0" result="hardAlpha"/>
<feOffset dy="4"/>
<feGaussianBlur stdDeviation="2"/>
<feComposite in2="hardAlpha" operator="out"/>
<feColorMatrix type="matrix" values="0 0 0 0 0 0 0 0 0 0 0 0 0 0 0 0 0 0 0.25 0"/>
<feBlend mode="normal" in2="BackgroundImageFix" result="effect1_dropShadow_212_36"/>
<feBlend mode="normal" in="SourceGraphic" in2="effect1_dropShadow_212_36" result="shape"/>
</filter>
</defs>
</svg>
