<svg width="127" height="40" viewBox="0 0 127 40" fill="none" xmlns="http://www.w3.org/2000/svg">
<path d="M10.824 9.632H14.424C13.624 11.808 12.232 13.24 10.248 13.928C9.496 14.184 8.688 14.312 7.824 14.312C5.808 14.312 4.104 13.608 2.712 12.2C1.384 10.856 0.72 9.24 0.72 7.352C0.72 5.32 1.44 3.632 2.88 2.288C4.208 1.024 5.824 0.391999 7.728 0.391999C9.648 0.391999 11.28 1.016 12.624 2.264C13.36 2.952 13.912 3.776 14.28 4.736C14.328 4.864 14.376 5 14.424 5.144H10.824C10.184 3.928 9.152 3.32 7.728 3.32C6.352 3.32 5.312 3.872 4.608 4.976C4.16 5.648 3.936 6.432 3.936 7.328C3.936 8.752 4.456 9.856 5.496 10.64C6.168 11.136 6.936 11.384 7.8 11.384C9.032 11.384 10.024 10.832 10.776 9.728C10.792 9.696 10.808 9.664 10.824 9.632ZM28.4796 0.704V14H25.2876V3.848H19.8396V14H16.6476V0.704H28.4796ZM37.5176 0.391999C39.5976 0.391999 41.3256 1.12 42.7016 2.576C43.9816 3.92 44.6216 5.544 44.6216 7.448C44.6216 9.32 43.9176 10.936 42.5096 12.296C41.1176 13.64 39.4616 14.312 37.5416 14.312C35.5736 14.312 33.8936 13.616 32.5016 12.224C31.1576 10.864 30.4856 9.24 30.4856 7.352C30.4856 5.416 31.1896 3.768 32.5976 2.408C33.9736 1.064 35.6136 0.391999 37.5176 0.391999ZM37.5416 3.32C36.3416 3.32 35.3496 3.808 34.5656 4.784C33.9896 5.52 33.7016 6.36 33.7016 7.304C33.7016 8.664 34.2056 9.752 35.2136 10.568C35.9016 11.112 36.6856 11.384 37.5656 11.384C38.7976 11.384 39.7976 10.88 40.5656 9.872C41.1256 9.136 41.4056 8.296 41.4056 7.352C41.4056 6.056 40.9176 5 39.9416 4.184C39.2376 3.608 38.4376 3.32 37.5416 3.32ZM46.4835 18.44V0.704H49.4115V2.264C50.4835 1.016 51.9395 0.391999 53.7795 0.391999C55.8595 0.391999 57.5315 1.136 58.7955 2.624C59.8675 3.904 60.4035 5.464 60.4035 7.304C60.4035 9.48 59.6835 11.24 58.2435 12.584L57.4995 13.208C56.3955 13.944 55.1475 14.312 53.7555 14.312C52.1875 14.312 50.8275 13.792 49.6755 12.752V18.44H46.4835ZM53.3715 3.32C52.0435 3.32 51.0035 3.848 50.2515 4.904C49.7395 5.608 49.4835 6.416 49.4835 7.328C49.4835 8.736 50.0035 9.832 51.0435 10.616C51.7315 11.128 52.5235 11.384 53.4195 11.384C54.6835 11.384 55.6835 10.864 56.4195 9.824C56.9315 9.12 57.1875 8.304 57.1875 7.376C57.1875 5.984 56.6755 4.888 55.6515 4.088C54.9955 3.576 54.2355 3.32 53.3715 3.32ZM63.6724 14V3.608H61.1524V0.704H69.7924L69.7444 3.608H66.8644V14H63.6724ZM13.128 22.704V36H9.936V25.848H4.488V36H1.296V22.704H13.128ZM19.8381 22.704H22.3821L27.7341 36H24.1341L21.1101 27.192L18.0381 36H14.4861L19.8381 22.704ZM35.5254 22.392C37.6054 22.392 39.3334 23.12 40.7094 24.576C41.9894 25.92 42.6294 27.544 42.6294 29.448C42.6294 31.32 41.9254 32.936 40.5174 34.296C39.1254 35.64 37.4694 36.312 35.5494 36.312C33.5814 36.312 31.9014 35.616 30.5094 34.224C29.1654 32.864 28.4934 31.24 28.4934 29.352C28.4934 27.416 29.1974 25.768 30.6054 24.408C31.9814 23.064 33.6214 22.392 35.5254 22.392ZM35.5494 25.32C34.3494 25.32 33.3574 25.808 32.5734 26.784C31.9974 27.52 31.7094 28.36 31.7094 29.304C31.7094 30.664 32.2134 31.752 33.2214 32.568C33.9094 33.112 34.6934 33.384 35.5734 33.384C36.8054 33.384 37.8054 32.88 38.5734 31.872C39.1334 31.136 39.4134 30.296 39.4134 29.352C39.4134 28.056 38.9254 27 37.9494 26.184C37.2454 25.608 36.4454 25.32 35.5494 25.32ZM59.4673 36H44.4913V22.704H47.6833V32.856H50.5633V22.704H53.7553V32.856H56.6353V22.704H59.8273V32.832H62.1313V39.096H59.4913V36H59.4673ZM77.9241 22.704V36H74.9961V34.272C73.9401 35.472 72.7081 36.144 71.3001 36.288C71.0761 36.304 70.8361 36.312 70.5801 36.312C68.4841 36.312 66.7961 35.568 65.5161 34.08C64.4281 32.8 63.8841 31.24 63.8841 29.4C63.8841 27.192 64.6201 25.416 66.0921 24.072C67.3401 22.952 68.8601 22.392 70.6521 22.392C72.3961 22.392 73.7801 23 74.8041 24.216C74.8681 24.296 74.9321 24.384 74.9961 24.48V22.704H77.9241ZM70.9881 25.32C69.5801 25.32 68.5161 25.88 67.7961 27C67.3321 27.704 67.1001 28.528 67.1001 29.472C67.1001 30.96 67.6601 32.056 68.7801 32.76C69.4201 33.176 70.1721 33.384 71.0361 33.384C72.3001 33.384 73.2681 32.984 73.9401 32.184C74.5321 31.384 74.8521 30.472 74.9001 29.448C74.9001 27.928 74.3561 26.784 73.2681 26.016C72.6121 25.552 71.8521 25.32 70.9881 25.32ZM88.5068 32.856L86.5388 27.192L84.5468 32.856H88.5068ZM90.5228 36H82.5788V38.88H79.3628V32.856H81.1868L85.2668 22.704H87.8108L91.8907 32.856H93.7148V38.88H90.5228V36ZM95.1632 36V22.704H98.3552V28.968L102.603 22.704H106.419L101.667 29.208L107.187 36H102.891L98.3552 29.784V36H95.1632ZM120.355 22.704V36H117.163V27.288L112.075 36H108.523V22.704H111.715V31.416L116.803 22.704H120.355ZM123.369 36V32.928H126.561V36H123.369Z" fill="white"/>
</svg>
