<svg width="196" height="60" viewBox="0 0 196 60" fill="none" xmlns="http://www.w3.org/2000/svg">
<path d="M15.7372 14.3241H21.3443C20.0983 17.6974 17.9302 19.9173 14.8401 20.9839C13.6688 21.3807 12.4104 21.5792 11.0647 21.5792C7.92469 21.5792 5.27067 20.4878 3.10259 18.3051C1.0342 16.2216 0 13.7164 0 10.7896C0 7.63952 1.12142 5.02274 3.36426 2.93923C5.43265 0.979744 7.94961 0 10.9151 0C13.9056 0 16.4475 0.967342 18.5408 2.90203C19.6871 3.96858 20.5469 5.24597 21.12 6.73419C21.1948 6.93262 21.2696 7.14345 21.3443 7.36668H15.7372C14.7404 5.4816 13.1331 4.53907 10.9151 4.53907C8.77199 4.53907 7.15216 5.39479 6.05566 7.10624C5.35789 8.14799 5.009 9.36337 5.009 10.7524C5.009 12.9599 5.81892 14.6714 7.43874 15.8867C8.4854 16.6556 9.68158 17.0401 11.0273 17.0401C12.9462 17.0401 14.4912 16.1844 15.6625 14.4729C15.6874 14.4233 15.7123 14.3737 15.7372 14.3241Z" fill="#2C2C2C"/>
<path d="M43.2362 0.483671V21.0955H38.2646V5.35759H29.7792V21.0955H24.8076V0.483671H43.2362Z" fill="#2C2C2C"/>
<path d="M57.3132 0C60.5529 0 63.2443 1.12857 65.3875 3.3857C67.3811 5.4692 68.3779 7.98677 68.3779 10.9384C68.3779 13.8404 67.2814 16.3456 65.0884 18.4539C62.9203 20.5374 60.3411 21.5792 57.3506 21.5792C54.2854 21.5792 51.6688 20.5002 49.5007 18.3423C47.4074 16.234 46.3607 13.7164 46.3607 10.7896C46.3607 7.78834 47.4572 5.23357 49.6502 3.12526C51.7934 1.04175 54.3477 0 57.3132 0ZM57.3506 4.53907C55.4816 4.53907 53.9365 5.29558 52.7154 6.8086C51.8183 7.94957 51.3697 9.25176 51.3697 10.7152C51.3697 12.8235 52.1547 14.5101 53.7247 15.7751C54.7963 16.6184 56.0174 17.0401 57.388 17.0401C59.3069 17.0401 60.8644 16.2588 62.0606 14.6962C62.9328 13.5552 63.3689 12.253 63.3689 10.7896C63.3689 8.78049 62.6088 7.14345 61.0887 5.87846C59.9922 4.98553 58.7462 4.53907 57.3506 4.53907Z" fill="#2C2C2C"/>
<path d="M71.2778 27.9785V0.483671H75.8383V2.90203C77.5079 0.967342 79.7757 0 82.6415 0C85.8812 0 88.4854 1.15337 90.4541 3.46011C92.1237 5.4444 92.9586 7.86275 92.9586 10.7152C92.9586 14.0885 91.8372 16.8169 89.5943 18.9004L88.4355 19.8677C86.716 21.0087 84.7722 21.5792 82.6041 21.5792C80.1619 21.5792 78.0437 20.773 76.2495 19.1608V27.9785H71.2778ZM82.0061 4.53907C79.9377 4.53907 78.3178 5.35759 77.1466 6.99463C76.3491 8.08599 75.9504 9.33857 75.9504 10.7524C75.9504 12.9351 76.7603 14.6341 78.3801 15.8495C79.4517 16.6432 80.6853 17.0401 82.0808 17.0401C84.0495 17.0401 85.6071 16.234 86.7534 14.6217C87.5508 13.5304 87.9496 12.2654 87.9496 10.8268C87.9496 8.66887 87.1521 6.96982 85.5572 5.72964C84.5355 4.93592 83.3518 4.53907 82.0061 4.53907Z" fill="#2C2C2C"/>
<path d="M98.0499 21.0955V4.98553H94.125V0.483671H107.582L107.507 4.98553H103.022V21.0955H98.0499Z" fill="#2C2C2C"/>
<path d="M19.3258 34.5887V55.2005H14.3542V39.4626H5.86876V55.2005H0.897135V34.5887H19.3258Z" fill="#2C2C2C"/>
<path d="M29.7769 34.5887H33.7392L42.0751 55.2005H36.468L31.758 41.5461L26.9733 55.2005H21.441L29.7769 34.5887Z" fill="#2C2C2C"/>
<path d="M54.2104 34.105C57.45 34.105 60.1414 35.2336 62.2846 37.4907C64.2782 39.5742 65.275 42.0918 65.275 45.0434C65.275 47.9454 64.1785 50.4506 61.9855 52.5589C59.8175 54.6424 57.2382 55.6842 54.2477 55.6842C51.1825 55.6842 48.5659 54.6052 46.3978 52.4473C44.3045 50.339 43.2578 47.8214 43.2578 44.8946C43.2578 41.8933 44.3543 39.3386 46.5473 37.2303C48.6905 35.1468 51.2448 34.105 54.2104 34.105ZM54.2477 38.6441C52.3787 38.6441 50.8336 39.4006 49.6125 40.9136C48.7154 42.0546 48.2668 43.3568 48.2668 44.8202C48.2668 46.9285 49.0518 48.6151 50.6218 49.8801C51.6934 50.7234 52.9145 51.1451 54.2851 51.1451C56.204 51.1451 57.7615 50.3638 58.9577 48.8012C59.8299 47.6602 60.266 46.358 60.266 44.8946C60.266 42.8855 59.506 41.2484 57.9858 39.9835C56.8893 39.0905 55.6433 38.6441 54.2477 38.6441Z" fill="#2C2C2C"/>
<path d="M68.1749 55.2005V34.5887H73.1466V50.3266H77.6322V34.5887H82.6039V50.3266H87.0895V34.5887H92.0611V50.2894H95.6497V60H91.5378V55.2005H68.1749Z" fill="#2C2C2C"/>
<path d="M120.247 34.5887V55.2005H115.687V52.5217C114.042 54.382 112.123 55.4237 109.93 55.647C109.581 55.6718 109.208 55.6842 108.809 55.6842C105.544 55.6842 102.915 54.5308 100.922 52.2241C99.2269 50.2398 98.3796 47.8214 98.3796 44.969C98.3796 41.5461 99.526 38.7929 101.819 36.7094C103.762 34.9731 106.13 34.105 108.921 34.105C111.637 34.105 113.793 35.0475 115.388 36.9326C115.488 37.0566 115.587 37.1931 115.687 37.3419V34.5887H120.247ZM109.444 38.6441C107.251 38.6441 105.594 39.5122 104.473 41.2484C103.75 42.3398 103.389 43.6172 103.389 45.0806C103.389 47.3873 104.261 49.0864 106.005 50.1778C107.002 50.8227 108.173 51.1451 109.519 51.1451C111.488 51.1451 112.995 50.525 114.042 49.2848C114.964 48.0446 115.463 46.6308 115.537 45.0434C115.537 42.6871 114.69 40.9136 112.995 39.723C111.974 39.0037 110.79 38.6441 109.444 38.6441Z" fill="#2C2C2C"/>
<path d="M136.73 50.3266L133.665 41.5461L130.562 50.3266H136.73ZM139.87 55.2005H127.497V59.6651H122.488V50.3266H125.329L131.684 34.5887H135.646L142.001 50.3266H144.842V59.6651H139.87V55.2005Z" fill="#2C2C2C"/>
<path d="M147.098 55.2005V34.5887H152.069V44.2993L158.686 34.5887H164.629L157.228 44.6713L165.825 55.2005H159.134L152.069 45.5643V55.2005H147.098Z" fill="#2C2C2C"/>
<path d="M186.334 34.5887V55.2005H181.362V41.6949L173.438 55.2005H167.905V34.5887H172.877V48.0942L180.802 34.5887H186.334Z" fill="#2C2C2C"/>
<path d="M191.028 55.2005V50.4382H196V55.2005H191.028Z" fill="#2C2C2C"/>
</svg>
