<svg width="20" height="20" viewBox="0 0 20 20" fill="none" xmlns="http://www.w3.org/2000/svg">
<path d="M1.67947 3.35918L1.67932 3.3594C0.432233 5.18886 0.12239 7.33957 0.80269 9.43127L0.802837 9.43172C0.965671 9.93565 1.37713 10.7515 1.68923 11.1962C1.85456 11.4279 2.14933 11.7582 2.46955 12.0784C2.78977 12.3986 3.12004 12.6934 3.35175 12.8587C3.79594 13.1702 4.51948 13.5382 5.06376 13.7262C6.89798 14.3545 8.96866 14.1653 10.6314 13.2163L11.0303 12.9883L11.1959 12.8937L11.3309 13.0284L14.5757 16.265C16.1178 17.8031 16.9285 18.6107 17.38 19.0425C17.8364 19.479 17.8952 19.4971 17.9319 19.5084C17.9327 19.5087 17.9336 19.5089 17.9344 19.5092L17.9344 19.5092L17.937 19.51C18.1878 19.5915 18.5027 19.5632 18.7164 19.4473C18.8146 19.3926 18.9821 19.2507 19.1482 19.0772C19.3168 18.901 19.442 18.7358 19.4801 18.6515L19.481 18.6494C19.5232 18.5583 19.5514 18.4063 19.5501 18.2379C19.5488 18.0726 19.5193 17.9326 19.4808 17.8537C19.4801 17.8533 19.47 17.839 19.44 17.8038C19.4051 17.7626 19.3542 17.7057 19.2859 17.6317C19.1497 17.484 18.9499 17.2745 18.6817 16.9984C18.1456 16.4466 17.3406 15.6334 16.2334 14.5262L16.2333 14.5261L13.0333 11.3221L12.8984 11.187L12.9931 11.0214L13.2204 10.6235C13.2205 10.6233 13.2206 10.6231 13.2207 10.623C13.5971 9.95615 13.8767 9.17697 14.0184 8.38585C14.1187 7.81837 14.1114 6.70048 13.9982 6.07642L13.9981 6.07622C13.8294 5.14208 13.3955 4.0936 12.8676 3.34276C12.7023 3.11112 12.4074 2.78076 12.0871 2.46046C11.7668 2.14012 11.4365 1.84523 11.2048 1.67993C9.8918 0.751038 8.17774 0.310022 6.55122 0.479023C5.28852 0.61236 4.01057 1.13903 3.00096 1.94417C2.60778 2.25958 1.94132 2.97416 1.67947 3.35918ZM8.0914 2.27952L8.09271 2.27973C9.10323 2.44675 9.99185 2.88915 10.7444 3.60737C11.3746 4.20765 11.8175 4.89377 12.0715 5.66872L12.0723 5.67111C12.2596 6.26251 12.3119 6.60166 12.3119 7.26919C12.3119 8.69947 11.8499 9.8132 10.8385 10.8288L10.8377 10.8296C9.89081 11.7723 8.8394 12.2424 7.51501 12.3107L7.51492 12.3107C5.83821 12.3964 4.22806 11.6287 3.21413 10.2684C2.28336 9.0201 1.98876 7.38012 2.42089 5.86137L2.42098 5.86106C2.4878 5.62735 2.6149 5.32248 2.75384 5.03836C2.89225 4.75531 3.05187 4.47352 3.19004 4.28993C4.3483 2.74334 6.21491 1.97961 8.0914 2.27952Z" fill="#FFB84D" stroke="white" stroke-width="0.5"/>
</svg>
