<svg width="196" height="36" viewBox="0 0 196 36" fill="none" xmlns="http://www.w3.org/2000/svg">
<path d="M18 0L22.0413 12.4377H35.119L24.5389 20.1246L28.5801 32.5623L18 24.8754L7.41987 32.5623L11.4611 20.1246L0.880983 12.4377H13.9587L18 0Z" fill="#FFB84D"/>
<path d="M58 0L62.0413 12.4377H75.119L64.5389 20.1246L68.5801 32.5623L58 24.8754L47.4199 32.5623L51.4611 20.1246L40.881 12.4377H53.9587L58 0Z" fill="#FFB84D"/>
<path d="M98 0L102.041 12.4377H115.119L104.539 20.1246L108.58 32.5623L98 24.8754L87.4199 32.5623L91.4611 20.1246L80.881 12.4377H93.9587L98 0Z" fill="#FFB84D"/>
<path d="M138 0L142.041 12.4377H155.119L144.539 20.1246L148.58 32.5623L138 24.8754L127.42 32.5623L131.461 20.1246L120.881 12.4377H133.959L138 0Z" fill="#FFB84D"/>
<path d="M178 0L182.041 12.4377H195.119L184.539 20.1246L188.58 32.5623L178 24.8754L167.42 32.5623L171.461 20.1246L160.881 12.4377H173.959L178 0Z" fill="#C4C4C4"/>
</svg>
